<svg width="820" height="820" viewBox="0 0 820 820" fill="none" xmlns="http://www.w3.org/2000/svg">
<path d="M0 200C0 89.5431 89.5431 0 200 0H400V400H0V200Z" fill="#112B3C"/>
<path d="M420 0H620C730.457 0 820 89.5431 820 200V200C820 310.457 730.457 400 620 400H420V0Z" fill="#205375"/>
<path d="M420 420H620C730.457 420 820 509.543 820 620V620C820 730.457 730.457 820 620 820V820C509.543 820 420 730.457 420 620V420Z" fill="#F66B0E"/>
<path d="M0 420H400V820H200C89.5431 820 0 730.457 0 620V420Z" fill="#112B3C"/>
</svg>
